/* XPM */
static char *team_logo_xpm[] = {
/* columns rows colors chars-per-pixel */
"256 64 63 1 ",
"  c #1A1905",
". c #624E13",
"X c #0C084F",
"o c #595957",
"O c #B68D1E",
"+ c #F7BE23",
"@ c #FCCB50",
"# c #1621DA",
"$ c #6077C7",
"% c #425EE3",
"& c #5A93F6",
"* c #7798E0",
"= c #84838C",
"- c #A7AFA7",
"; c #FBDF89",
": c #F5EBB6",
"> c #A3BDDA",
", c #85B3F0",
"< c #B3CBD1",
"1 c #9CCAF5",
"2 c #B3D2EF",
"3 c #BFDAE9",
"4 c #BBDEF5",
"5 c #C5CFC5",
"6 c #D4DFD6",
"7 c #EFF2D5",
"8 c #CAE4EA",
"9 c #D5EBEB",
"0 c #DCF4EB",
"q c #C4E3F4",
"w c #C5EAFC",
"e c #D4ECF1",
"r c #D4ECF3",
"t c #D4ECF4",
"y c #D6ECF5",
"u c #D6EEF5",
"i c #DCECF4",
"p c #D4ECFC",
"a c #DCECFC",
"s c #CCF4FC",
"d c #D4F4F4",
"f c #DAF2F7",
"g c #DCF4F4",
"h c #DCFCF4",
"j c #D4F4FC",
"k c #DCF4F9",
"l c #DCF4FC",
"z c #D4FCFC",
"x c #DCFCFC",
"c c #E2EDE3",
"v c #E4ECED",
"b c #EAF5EB",
"n c #E4F4F4",
"m c #ECF4F4",
"M c #E4FCF4",
"N c #EDFCF3",
"B c #E4F4FC",
"V c #E0F8FD",
"C c #E2FAFF",
"Z c #E4FCFC",
"A c #ECFCFC",
"S c #F8FCF9",
"D c white",
/* pixels */
"DDDDDDDDDDDDDDDDDDDDDDDDDDDDDDDDDDDDDDDDDDDDDDDDDDDDDDDDDDDDDDDDDDDDDDDDDDDDDDDDDDDDDDDDDDDDDDDDDDDDDDDDDDDDDDDDDDDDDDDDDDDDDDDDDDDDDDDDDDDDDDDDDDDDDDDDDDDDDDDDDDDDDDDDDDDDDDDDDDDDDDDDDDDDDDDDDDDDDDDDDDDDDDDDDDDDDDDDDDDDDDDDDDDDDDDDDDDDDDDDDDDDDDDDDDDDDDDD",
"ZZZZZZZZZZZZZZZZZZZZZZZZZZZZZZZZZZZZZZZZZZZoZZZZZZZZZZZZZZZZZZZZZZZZZZZZZZZZZZZZZZZ2tZZZZZZZZZZZZZZZZZZZZZZZZZZZZZZZZZZZZZZ9ccbbbbc=         =566c6ccc666556tkkfkkkVVVsZZZZZZZZZZZZZZZZZZZZZZZZZZZZZZZZZZZZZZZZZZZZZZZZZZZZZZZZZZZZZZZ8ZZZZZZZZZZZZZZZZZZZZZZZZk",
"ZZZZZZZZZZZZZZZZZZZZZZZZZZZZZZZZZZZZZZZZZZ=ZZZZZZZZZZZZZZZZZZZZZZZZZZZZZZZZZZZZZZZZZZZZZZZZZZZZZZZZZZZZZZZZZZZZZZZZZZZZZZZZ66cbNSSb-o        =566c6666666553tffkkVkVVVqZZZZZZZZZZZZZZZZZZZZZZZZZZZZZZZZZZZZZZZZZZZZZZZZZZZZZZZZZZZZZZZZZZZZZZZZZZZZZZZZZZZZZZZZk",
"ZZZZZZZZZZZZZZZZZZZZZZZZZZZZZZZZZZZZZZZZZ-ZZZ=ZZZZZZZZZZZZZZZZZZZZZZZZZZZZZZZZZZZZZZZZZZZZZZZZZZZZZZZZZZZZZZZZZZZZZZZZZZZZ956cNSSSS6o.      .=56666666665556rfkkkkkkVVZZZZZZZZZZZZZZZZZZZZZZZZZZZZZZZZZZZZZZZZZZZZZZZZZZZZZZZZZZZZZZZZZZZZZZZZZZZZZZZZZZZZZZZZZZ",
"ZZZZZZZZZZZZZZZZZZZZZZZZZZZZZZZZZZZZZZZZZZZZZ=ZZZZZZZZZZZZZZZZZZZZZZZZZZZZZZZZZZZZZZZZZZZZZZZZZZZZZZZZZZZZZZZZZZZZZZZZZZZZ866cmSSSSN5o      o-556666c66665-59fkkkkkVVVZZZZZZZZZZZZZZZZZZZZZZZZZZZZZZZZZZZZZZZZZZZZZZZZZZZZZZZZ7+7ZZZZZZZZZZZZZZZZZZZZZZZZZZZZZZZ",
"ZZZZZZZZZZZZZZZZZZZZZZZZZZZZZZZZZZZZZZZZZZZZZ=ZZZZZZZZZZZZZZZZZZZZZZZZZZZZZZZZZZZZZZqZZZxVVZZZZZZZZZZZZZZZZZZZZZZZZZZZZZZZZ9cbmSSSSSb-o. oo=--556666666665559ffkkVkVVlZZZZZZZZZZZZZZZZZZZZZZZZZZZZZZZZZZZZZZZZZZZZZZZZZZZZZZ;+++++@ZZZZZZZZZZZZZZZZZZZZZZZZZZZZZ",
"ZZZZZZZZZZZZZZZZZZZZZZZZZZZZZZZZZZZZZZZZZZZZZZZZZZZZZZZZZZZZZZZZZZZZZZZZZZZZZZZZZZZZZZZZkVVVVVxVVZZZZZZZZZZZZZZZZZZZZZZZZZ9cccbNSSSSS6===-5555555666666655556fkkVVVkVZZZZZZZZZZZZZZZZZZZZZZZZZZZZZZZZZZZZZZZZZZZZZZZZZZZZZ+++   O++++ZZZZZZZZZZZZZZZZZZZZZZZZZZZ",
"ZZZZZZZZZZZZZZZZZZZZZZZZZZZZZZZZZZZZZZZZZZZZZZZZZZZZZZZZZZZZZZZZZZZZZZZZZZZZZZZZZZZZZZZZZZhxVVxVVZZZZZZZZZZZZZZZZZZZZZZZZZ99ccNNSSSSSN65666665555666666655559ffkkkkkVkZZZZZZZZZZZZZZZZZZZZZZZZZZZZZZZZZZZZZZZZZZZZZZZZZ:++.   +O    +++;ZZZZZZZZZZZZZZZZZZZZZZZZ",
"ZZZZZZZZZZZZZZZZZZZZZZZZZZZZZZZZZZZZZZZZZZZZZZZZZZZZZZZZZZZZZZZZZZZZZZZZZZZZZZZZZZZZZZZZZxVZVZVxVxZZZZZZZZZZZZZZZZZZZZZZZZ0cccbNSSSSSScc6666555556666655-5559gkkkkkVkwZZZZZZZZZZZZZZZZZZZZZZZZZZZZZZZZZZZZZZZZZZZZZZZ@++++O     + .++ O+++ZZZZZZZZZZZZZZZZZZZZZZ",
"ZZZZZZZZZZZZZZZZZZZZZZZZZZZZZZZZZZZZZZZZZZZZZZZZZZZZZZZZZZZZZZZZZZZZZZZZZZZZZZZZZZZZZZZZhxVxZVZxxVZZZZZZZZZZZZZZZZZZZZZZZZZiccbNSSSSSSbcc666655555565-=oo=-5rfkkkkVVVZZZZZZZZZZZZZZZZZZZZZZZZZZZZZZZZZZZZZZZZZZZZZZ+++   .+++   .++..+   +++:ZZZZZZZZZZZZZZZZZZZ",
"ZZZZZZZZZZZZZZZZZZZZZZZZZZZZZZZZZZZZZZZZZZZZZZZZZZZZxZZZZZZZZZZZZZZZZZZZZZZZZZZZZZZZZ4ZZVxxxZZVZVxZZZZZZZZZZZZZZZZZZZZZZZZZvcccbNSSSSNccc66665555555=oo  o-3gkkkVVkVVZZZZZZZZZZZZZZZZZZZZZZZZZZZZZZZZZZZZZZZZZZZ@++.++++O    ++++O +++     ++++ZZZZZZZZZZZZZZZZZ",
"ZZZZZZZZZZZZZZZZZZZZZZZZZZZZZZZZZZZZZZZZZZZZZZZZZZZVVZZZZZZZZZZZZZZZZZZZZZZZZZZZZZZZZZZZxZhVZVZZVxxZZZZZZZZZZZZZZZZZZZZZZZZZccccbNSSNbcc66555555555=o    o-8kkkVkkkVxZZZZZZZZZZZZZZZZZZZZZZZZZZZZZZZZZZZZZZZZZ+++O    ++++ O++ O++++ +++      +++cZZZZZZZZZZZZZZ",
"ZZZZZZZZZZZZZZZZZZZZZZZZZZZZZZZZZZZZZZZZZZZZZZZZZZVVZZZZZZZZZZZZZZZZZZZZZZZZZZZZZZZZZZZZxVVxZVZVVhxhZZZZZZZZZZZZZZZZZZZZZZZZ9cccbbbbbcc665655555555=     o-9fkkkkVVxZZZZZZZZZZZZZZZZZZZZZZZZZZZZZZZZZZZZZZZ7+++  O++     .++ ++  .++++ .++..+++ +++@ZZZZZZZZZZZZ",
"ZZZZZZZZZZZZZZZZZZZZZ222222ZZZZZZZZZZZZZZZZZZZZZZZxVhZZZZZZZZZZZZZZZZZZZZZZZZZZZZZZZZZZZZZZZZVZZZVkZZZZZZZZZZZZZZZZZZZZZZZZZtcccccccc6666665555555-o     =5tfkkkkV634wwww3<ZZZZZZZZZZZZZZZZZZZZZZZZZZZZZZ@+++++    O++ O++ .++      ++++O ++O +++ O+++0ZZZZZZZZZ",
"ZZZZZZZZZZZZZZZZZ2*222222222q32<ZZZZZZZZZ######wwwwAVVZZZZZZZZZZZZ*#####**2ZZZZ4244q4w1wwqwwwwwwwww4<gZZZZZZZZZZZZZZ22222222>966666656565--*=*====-o    o<9fkkV<wwqw#wwwwqwwww6ZZZZZZZZZZZZZZZZZZZZZZZZ+++++O +++    +++ O++. ++.     +++++ +++ O++. +++7ZZZZZZZ",
"ZZZZZZZZZZZZZZZ4333*4443333#33233<ZZZZZZZ##%###wwwwwVxhZZZZZZZZZZ2,#####**3ZZZZ244344w,4qqqwqwwqwqq44wq<ZZZZZZZZZZZ3222222224t655==o=-555========$=o   o-8tff####################q4444224ZZZZZZZZZZZZZ++   +++O ++ +++++++ .++O ++O +++ .++++ O++. +++ +:ZZZZZZZ",
"ZZZZZZZZZZZZ4######################42224Z4#####wwqww6xxZZZZZZZZZZ2,#####**<ZZZZ22424######################342222ZZ2>#####2224f95=o  .o-55$===XXXXXo   o-3rkk4#####################s444224ZZZZZZZZZZZZZ+      +.+O ++ O+O .++O +++ O++ +++. ++++ .+++.  +:ZZZZZZZ",
"ZZZZZZZZZZZZ########################2244Z4>####wwwwwwZxZZZZZZZZZ42*#####*,ZZZZZ23424#######################42422ZZ2>#####2244kf9-o    o=-====XXXXX$$==-3rgV44######################342224ZZZZZZZZZZZZZ+  +.   +. ++ O+O ++  +++ +++. ++..+++ O++++ O+  +:ZZZZZZZ",
"ZZZZZZZZZZZ2#########################q24Z44####qwwwwq<ZZZZZZZZZ<24*#####*>ZZZZZ23424########################2422ZZ2>#####2244kkg8-     .=o===XXXXXo=-56rtn444#######################w4424ZZZZZZZZZZZZZ+  +O+O .++  ++ O++ ++  O++ ..  O++. +++ O.  O+  +:ZZZZZZZ",
"ZZZZZZZZZZ22##########################24Z44<###qwwwwwwAZZZZZZZZ444,#####*ZZZZZZ22224########################4222ZZ2>#####2444kkkg8-o    .Xoo=XXXXX=$<39gf<444########################4224ZZZZZZZZZZZZZ+  +O++       +++..++ +++.O++     +++O + +.  O+  +:ZZZZZZZ",
"ZZZZZZZZZZ22##########################q4Z441$##qwwwwww3hZZZZZZ<422,#####5ZZZZZZ22222#########################222ZZ2>#####2244kkggk9<-oo oooooXXXXX$>9rudl2444########################w442ZZZZZZZZZZZZZ+  +O++  +      .++..++ +    ++.    +++  +.  O+  +;ZZZZZZZ",
"ZZZZZZZZZ232#########>44w42############4Z44,w##twwwwwww9ZZZZZZ4424*#####ZZZZZZZ22222#########################422ZZ2>#####2224kkkVVVi9<-=-ooo$XXXX#-29fr9533q3#######wwwwws###########*222ZZZZZZZZZZZZZ+  +O++  +  +   .+ ++. ++      ++O   ++  +.  O+  +;ZZZZZZZ",
"ZZZZZZ43Z#####1####-88888<ZZZ####11###1ZZ441q*#qwwwwwwqwZZZZZ<4424,####qZZZZZZZ11221####wwwwwwwwwd############22ZZ2>#####2444kkkVVVqfke86>**-o#####29t82######4wqqAZZZZZZZZZqqqq433442ZZZZZZZZZZZZZZZZ+  +O++  +  ++.  +++ ++O +++.    +.  ++  +.  O+  +;ZZZZZZZ",
"ZZZZZZ422###222222>ZZZZZZZ1ZZZ>22222222ZZ444ww#rwwwwwwww6ZZZZ44442*####2ZZZZZZ2#####1244qZVZVVVVnVk#22224#####22ZZ2>#####2424kkVfwVkekfgd222>######29r84######4qwwZZZZZZZZZZ6qqq334322ZZZZZZZZZZZZZZZZ+  .O++  +  ++. +     +++O +++.  +O  ++  +.  O+.++;ZZZZZZZ",
"ZZZZZZ44=###22222*ZZZZZZZZZ2ZZ>22222224ZZwqwww>wwwwwwwwwwZZZ444424,###q2ZZZZZZ3#####>111wZZZVVVVgkgg11124#####22ZZ2>#####4244Z4MVkxk4kfur2222######29t82######4qwwZZZZZZZZZZZqqq434422ZZZZZZZZZZZZZZZZ+O .O+O  +  ++. +O      ++++ ++  +O  ++  +.  O++++;ZZZZZZZ",
"ZZZZZ443#####222,2ZZZZZZZZZZ>ZZ5Z<5Z66ZZZqqpwww3wwwwwwwqw3ZZ444424*###22ZZZZZZ3#####>111AVMVVVVVgkkg81122#####22ZZ2<#####42*wkkVhkkk4ggur2>>>######29984######4qww<ZZZZZZZZZZZZZZZZZZZZZZZZZZZZZZZZZZZ+O+.O+.  +  ++. +O  +O    ++ ++  +.  ++  +O+++++++;ZZZZZZZ",
"VZZZZw42#####22122ZZZZZZZZZZZZZZZZZZZZZZZwwwwwwZwwwwwwwwwwZw444244,##422ZZZZZZ3#####,111VVxVghgkkkkkV1112#####22ZZ2>#####r444kggVkkkdfue92>>>######29t32######qwww4wZZZZZZZZZZZZZZZZZZZZZZZZZZZZZZZZZZ+O+.O+.. +  ++. +O  ++ +  O+ ++  +.  +.  +++++++++@ZZZZZZZ",
"gVZZZwq4#####34222ZZZZZZZZZZZZZZZZZZZZZZZqwwwwwZ<wwwwwwwqw3w444444,##222ZZZZZZ3#####,111VdVVkgkkfktf6>,>2#####22ZZ2<#####244qgVVVkkfg0ie9>>>>######29r823#####wqqw1wws6ZZZZZZZZZZZZZZZZZZZZZZZZZZZZZZZ+O+.O+.+++   +. +O  ++ +  O+ ++  +.  +.++++O++++ +@ZZZZZZZ",
"kVVgZ4q4####232222ZZZZZZZZZZZZZZZZZZZZZZZq4wwwwZZwwwwwwwwwwqq44424*#2222ZZZZZZ3#####,1,1V4gggkkkffff,,>11#####22Zg*<#####444qkVVVkxfgii992>>>######29r322#################ZZZZZZZ44424222ZZZZZZZZZZZZZ+ +.O+.+++ + +  +O  ++ +  O+ ++  +. O+.++++O+++  +@ZZZZZZZ",
"VVVVZq34####222222ZZZZZZZZZZZZZZZZZZZZZZZ41wqwwZV<qwwwwwqwwwq44223,>2222ZZZZZZ3######,,,r4rr9r89988-##,,######2>3Z2<#####244qkVVVxBkfkfe92>2>#####-29u324####################<ww4qq422222ZZZZZZZZZZZZZ+  .O+.+++ + +  +O  ++ +  O+ ++  +.+++.++++O+++  ++ZZZZZZZ",
"kgkkkwq4#####22222ZZZZZZZZZZZZZZrZZZZZZZZw1wwwwZZZwwwwwwwwwq444422,22222ZZZZZZ3#########qpqq4444q<#######>2>22ZZZZ2<#####444wVVVVVBkgkge9222>######29r8242######################3w4444442ZZZZZZZZZZZZZ+  .O+.+++ + +O++O  ++ +  O+ +  ++.+++.++++O+++  +@ZZZZZZZ",
"VVkgk442#####22222ZZZZZZZZZZZZZZZrZZZZZZZw1wwwwZZZZwsswswwwwqq4444>22222ZZZZZZ3#########q4w4r############2$<>ZZZZZ2<#####444qVVMZMfkgufur222>#####-29t84444#######################q444222ZZZZZZZZZZZZZ+  +O+.+.+ + +O+++. +  +  .+ + +++.+++ O ++O+++  ++ZZZZZZZ",
"gVgkk443#####22222ZZZZZZZZZZZZZZZZZZZZZZZZlZZVZwwww#1111111111,,,#222222ZZZZZZ3#########q4,4#############>>>ZZZZZZ2<#####444wVVZVVMVkqfuu4222######29u82424q-#######################42222ZZZZZZZZZZZZZ+  +O+.+ + + ++++++++      + + +++.+++.  ++O+++  ++ZZZZZZZ",
"VVhgVq4,#####22222ZZZZZZZZZZZZZZZZZZZZZZZZZVVZZwwwws#############q422222ZZZZZZ3#########q4*3########X####>16ZZZZZZ2######4q4wVVVZZVVk2kff4222#####-29u822444qw#######################4422ZZZZZZZZZZZ2Z+  +O+.+ + + +O++++++ +  O.+ + +++.+O+.  ++++++  O+ZZZZZZZ",
"VVVkkq44#####2222>ZZZZZZZZZZZZZZZZZZ2ZZZZZZZZZZwwwww#############4222222ZZZZZZ3#########q422#####X#######>-ZZZZZZZ2######444wVZVVVVVVqkfu4422#####-29u8422444qww<####################<222ZZZZZZZZZZ<ZZ+  +O+.+ + + + O+++++ +  +.+ + +++.+O+.  ++++++  O+ZZZZZZZ",
"VVVVZZ44#####22222ZZZZZZZZZZZZZZZZZZZZZZZZZZZZZwwwwww###########44422222ZZZZZZ3#########q4q2#############<ZZZZZZZZ2######4wqwVZZCCVVVfkff4222#####-2ruuufffkkkVVVsZ6qwwwwqwwwwwq44####442ZZZZZZZZZZZZZ+   O+.+ + + +  +++++ +  +.+ + + +.+O+.  ++++++ +O+ZZZZZZZ",
"VVVZZ4q4#####32222ZZZZZZZZZZZZ2ZZZZZZZZZZZZZZZZwwwwww##########-44222222ZZZZZZ3#####,11,gBig,,,,,,######4ZZZZZZZZZ2######wwqwVZVCCZVVAkff4222#####-2rruffffkkVVVZZCVCCZ34w44w4q444#####22ZZZZ<ZZZZZZZZ+.  O+.+ + + +  +++++ +  +.+ + + +.+O+.  ++++++++O+ZZZZZZZ",
"VVZZZZ4q####233223ZZZZZZZZZZZ>ZZZZZZZZZZZZZZZZZwwwwwwz#########w24424222ZZZZZZ3######,,,Z2n2,,,,,,####q22ZZZZZZZZZ2<#####qwwwZVZCCZVVVgfu4222#####-2ruuufffkVVVVCZCCCCCCCCC<4w4444#####22ZZZZZZZZZZZZZ+.+ O+.+ + + +  +++++ +  + + + + +.+++.  ++++++++O+ZZZZZZZ",
"MZZZZZq4#####22223ZZZZZZZZZZ8ZZZZZZZZZZZZZZZZZZZZZZZZA141111111Vaf242222ZZZZZZ3######1%1ZZZ2,,,,,,#####22ZZZZZZZZZ4######qwwwVZVCCZxVVVff4422#####-29uru224444444CCCCCCCCCCVZ44q44#####12ZZZZZZZZZZZZZ+.+ O+.+ + + +  +++++      + + + +.+++.  ++++++++O+ZZZZZZZ",
"ZZZZZ4q4#####2224<ZZZZZZZZZ8ZZ<>>>>>><ZZZ4ZZZZZZZZZZZAww4w44222nff422222ZZZZZZ3######,,,ZZZic,,,,,#####32ZZZZZZZZZ4<#####wwwwZVZCCZVVVVff4422#####-2rurr224444444CCCCCCCCCCxk<4q44#####22ZZZZZZZZZZZZZ+.+ O+.+O+ + +  +++++      + + + +.+++.++++++++++O+ZZZZZZZ",
"ZZZZZZq4-###12222&ZZZZZZZZZZZZ2>2222242ZZ4ZZZZZZZZZZZAwwwwww444kff424222ZZZZZZ3######,,,ZZZZZ,,,,,X#####2ZZZZZZZZZ42#####qqwwMZVCCZVVkufk4222######29dtr242444441CCCCCCCCCCVV<w2,q#####42ZZZZZZZZZZZZZ+ + O+.+O+ + +  +++++      + + + +.+++.++++++++++O+ZZZZZZZ",
"ZZZZZZ4qq###222222-ZZZZZZZZZZ222222424<ZZssZZZZZZZZZZAwwwwwwqw4kff422222ZZZZZ>>######,,,ZZZZ8Z,,,,#######ZZZZZZZZZ4w#####wwwwsVVCCZVVk4f44222#####32ey34##########jwqwwwwwqw,##########22ZZZZZZZZZZZZZ+  .O+.+O+ + +  +++++      + + + +.+O+ ++++++++++++ZZZZZZZ",
"ZZZZZZZZZwq3########22222422###########ZZxV4ZZZZZZZZZAwwwqwwqq4kkf222222ZZZ2Z33######,,,ZZZZ2ZZ,,,#######>ZZZZZZZZ24#####wtwwwwAZVVVVkw4qq334#####22eu32###########sjwwp41ww###########22ZZZZZZZZZZZZZ+  .O+.+O+ + +OO+++++      + + +.+.+O+ ++++++++++++ZZZZZZZ",
"ZZZZZZZZZ>44##########>2<#############3wZZVV4ZZZZZZZZAwwswwwwqqVkk422222>ZZZZ33#####,,,,ZZZZZZZ,,,,,,,,,,#q22242ZZZZ<qwqw########>q3>#########222>rrtt32#############,#wwww###########322ZZZZZZZZZZZZZ+  +O+. .+ + +O+O++++      + + +O+.+O+ ++++++++++++ZZZZZZZ",
"ZZZZZZZZZZ22##########################4wZVZVZwZwwwwwwz111111,,,444itt>ZZZZZZZ33######,,,ZZZZZZZZ,,,,,,,,,##22224ZZZZZqw4t#####################2228trft824#############################422ZZZZZZZZZZZZZ+  +O+O  + + +O+O++++      + + +O+.+++ ++++++++++++ZZZZZZZ",
"ZZZZZZZZZZ<2#########################3wwZZVZVVZwwwwwwz111111,,,w443ZZZZZZZZZZ33#####,,,,ZZZZZZZZZ,,,,,,,,###4244ZZZZZ<wws#####################221trrtt822=############################222ZZZZZZZZZZZZZ+  +O++  +   +O+O++++      + + +O+.+ + ++++++++++++ZZZZZZZ",
"ZZZZZZZZZZZ<#########################wwwZVVVZVZjwwwwwz#########224ZZZZZZZZZZZ33#####,,,,ZZZZZ3ZZZ,,,,,,,,###2244ZZZZZZwws#####################22f9rrtf3424###########################4222ZZZZZZZZZZZZZ+  +O++  +   +O+O++++ +  +O+ + +O+.  + ++++++++++++ZZZZZZZ",
"ZZZZZZZZZZZZ########################wwwwsZZZVZVswwwwwz#########w22ZZZZZZZZZZZ33#####,,,,ZZZZZ>ZZZZ,,,,,,,####444ZZZZZZZss#####################2frrrttr8q*44#########################44222ZZZZZZZZZZZZZ+  +O++  +  ++O+O++++ +  +O+ + . +.  + ++++++++++++ZZZZZZZ",
"ZZZZZZZZZZZZ2#####################>w44qwZZMZZZVwswwwwz#########q22ZZZZZZZZZZZ33######,,,ZZZZZZZZZZZ,,,,,,#####24ZZZZZZZZw#####################feeeeeq2ZZZZZZ6qjsspxwttzszswszwwspw3ZZZZZZZZZZZZZZZZZZZ++ +O++  +  ++O+O++++ +  +O+ +   +.  + ++++++++++ZZZZZZZZZ",
"ZZZZZZZZZZZZZZZ>22322222222&2224<ZZZZZZZnSZZZZZwwswwws#########w42ZZZZZZZZZZZZ9##,,,,,,,ZZZZZZgZZZZ0,,,,,,,,,,6ZZZZZZZZZZZ444444444423######99yei>ZZCZZZZZZZZZ<wq4q4qqw4ww44w44q4ZZZZZZZZZZZZZZZZZZZZZZ++++++  +  ++O+++O++ +  +O+ ++  +O  +.+++++++7ZZZZZZZZZZZ",
"ZZZZZZZZZZZZZZZZZ<422222221222<ZZZZZZZZZcZZZZZZVVZxA4Z<111,1,,<ZZZZZZZZZZZZZZZZ-,**,,,,ZZZZZZZ3ZZZZZZ,,,,,,,,,ZZZZZZZZZZZZZZ<wwwwwww4qq*4<neg82ZCZZZZZZZZZZZZZZZZ2ww4q4w444www<ZZZZZZZZZZZZZZZZZZZZZZZZZZ;+++  +  ++O+++O++ +    + ++  +O  +.+++++cZZZZZZZZZZZZZ",
"ZZZZZZZZZZZZZZZZZZZZ6<>>><<ZZZZZZZZZZZZZZZZZZZZZZwxwZZZZZZZZZZZZZZZZZZZZZZZZZZZZZZZZZZZZZZZZZZ1ZZZZZZZZZZZZZZZZZZZZZZZZZZZZZZZZZ3<<<<3Zwgg3ZZZZZZZZZZZZZZZZZZZZZZZZZ6<<<<<6ZZZZZZZZZZZZZZZZZZZZZZZZZZZZZZZZ7++++  ++O++++++ +    + ++  +O  +.+++ZZZZZZZZZZZZZZZZ",
"ZZZZZZZZZZ  ZZZZZZZZZZZZZZZZZ   ZZ   ZZ   ZZZZZrZZZZ   ZZZZZZZZZZZZZZZ   ZZZZZZZZZZZZZZZZZZZ     ZZZ   ZZZZZZZZZZZZZZ    ZZZZZZZZZZZZ  2ZZZZZZZZZZZZZZZZ   ZZZZZZZZZZZZZZZZZZZ  ZZZZZZZZZ   ZZ   ZZZZZZZZZZZZZ+++.++O++++++ +    + ++  +O .+++ZZZZZZZZZZZZZZZZZZ",
"ZZZZZZZZZZ  ZZZZZZZZZZZZZZZZZ   ZZ   ZZ   ZZ5ZZZZZZZ   ZZZZZZZZZZZZZZ  ZZZZZZZZZZZZZZZZZZZZZ      ZZ   ZZZZZZ  ZZZZZZ      ZZZZZZZZZZ  ZZZZZZZZZZZZZZZZ    ZZZZZZZZZZZZZZZZZZZ  ZZZZZZZZZ   ZZ   ZZZZZZZZZZZZZZZ++++O++++++ +    + ++  ++++;ZZqZZZZZZZZZZZZZZZZZ",
"ZZZZZZZZZZ  ZZ     ZZZZ    ZZ    Z   Z     Z  ZZ  ZZ    ZZ    ZZZZZZZ    ZZZ    ZZ    ZZZZZZ   n  ZZZZZZZ     ZZZZZZZ  Z   ZZZ    ZZ    ZZZ    ZZZZZZZZ    ZZZ     ZZZZ    ZZZ  ZZ  Z  Z     ZZZZZZZ   ZZZ     ZZZ;+++O+O++ +    + ++ +++7ZZZZZZZZZZZZZZZZZZZZZZ",
"ZZZZZZZZZZ  Z2  Z   ZZ  ZZZZZ    Z   Z     Z  ZZ  ZZ    Z   Z  ZZZZZZ    ZZ  Z  ZZ    ZZZZZZ      ZZ   ZZ  Z  ZZZZZZZ  Z   ZZ      n    ZZ      ZZZZZZZ  Z ZZZ      ZZ  Z   ZZ  ZZ     Z     Z   ZZ     ZZ  Z ZZZZZZ:++++++ +    + ++++7ZZZZZZZ4ZZZZZZZZZZZZZZZZ",
"ZZZZZZZZZZ  ZZ  ZZ  ZZ     ZZ   ZZ   ZZ   ZZ  ZZ  ZZ   ZZ      ZZZZZZ   ZZ  ZZZ  Z   ZZZZZZZ      ZZ   ZZ     ZZZZZZZ  Z   ZZZ     nZ  ZZZZ     ZZZZZZ   Z  ZZ  ZZ  ZZZ     ZZ  ZZ     ZZ   ZZ   ZZ  ZZZZZ     ZZZZZZZZ++++ +    ++++ZZZZZZZZZZZZZZZZZZZZZZZZZZZ",
"ZZZZZZZZZZ  ZZ  ZZ  ZZZZZ  ZZ   ZZ   ZZ   ZZ  ZZ  ZZ   ZZ   ZZZZZZZZZ   ZZZ  Z   Z   ZZZZZZZ   Z  ZZ   ZZ  ZZZZZZZZZZ  Z   ZZ  Z   ZZ  ZZZ  Z   ZZZZZZ      ZZ  ZZ  ZZ  Z   ZZ  ZZZ   ZZZ   ZZ   ZZ  Z  ZZZZ   ZZZZZZZZZZ;+++  +++;ZZZZZZZZZZZZZ3ZZZZZZZZZZZZZZZ",
"ZZZZZZZZZZ  ZZ  ZZ  ZZ     ZZ    Z   ZZ    ZZ     ZZ    ZZ     ZZZZZZ   ZZZ     ZZ   ZZZZZZZ      ZZ   ZZ      ZZZZZZ     ZZZ      ZZ   ZZ      ZZZZZZ  ZZ  ZZ  ZZ  ZZ      ZZ  ZZZ   ZZZ    Z   ZZ     ZZ     ZZZZZZZZZZZZ7++++ZZZZZZZZZZZZZZZZZZZZZZZZZZZZZZZZ",
"ZZZZZZZZZZZZZZZZZZZZZZZZ  ZZZZ  ZZZZZZZZ  ZZZZ ZZZZZZ  ZZZw  ZZZZZZZZZZZZZZZZ ZZZZZZZZZZZZZZZZZZ8ZZZZZZZ   ZZ  4ZZZZZZZZZZZZZZ  ZnZZZZ  ZZZ  ZZZZZZZZZZZZZZZZ4ZZZZZZZZZ ZZZZZZZZZZZ  ZZZZZ  ZZZZZZZZZ ZZZZZ  ZZZZZZZZZZZZZZZZZZZZZZZZZZZZZZZZZZZZ4ZZZZZZZZZZZZZZ",
"ZZZZZZZZZZZZZZZZZZZZZZZZ2ZZZZZZZZZZZZZZZZZZZZZZZZZZZZZZZZZZ4ZZZZZZZZZZZZZZZZZZZZZZZZZZZZZZZZZZZZ1ZZZZZZZ       ZZZZZZZZZZZZZZZZZZnZZZZZZZZZZZZZZZZZZZZZZZZZZZZZZZZZZZZZZZZZZZZZZZZ   ZZZZZZZZZZZZZZZZZZZZZZZZZZZZZZZZZZZZZZZZZZZZZZZZZZZZZZZZZZZZZZZZZZZZZZZZZZZ",
"ZZZZZZZZZZZZZZZZZZZZZZZZZZZZZZZZZZZZZZZZZZZZZZZZZZZZZZZZZZZk4ZZZZZZZZZZZZZZZZZZZZZZZZZZZZZZZZZZZZZZZZZZZZ<ZZZZZZZZZZZZZZZZZZZZZZVZZZZZZZZZZZZZZZZZZZZZZZZZZZZZZZZZZZZZZZZZZZZZZZZZZZZZZZZZZZZZZZZZZZZZZZZZZZZZZZZZZZZZZZZZZZZZZZZZZZZZZZZZZZZZZZZZZZZZZZZZZZZZZZ",
"ZZZZZZZZZZZZZZZZZZZZZZZZZZZZZZZZZZZZZZZkZZZkZZZZZZZZZZZZZZZVk4ZZZZZZZZZZZZZZZZZZZZZZZZZZZZZZZZZZZZZZZ28trrZZZZZZZZZZZZZZZZZZZZZZhZZZZZZZZZZZZZZZZZZZZZZZZZZZZZZZZZZZZZZZZZZZZZZZZZZZZZZZZZZZZZZZZZZZZZZZZZZZZZZZZZZZZZZZZZZZZZZZZZZZZZZZZZZZZZZZZZZZZZZZZZZZZZZZ",
"DDDDDDDDDDDDDDDDDDDDDDDDDDDDDDDDDDDDDDDDDDDDDDDDDDDDDDDDDDDDDDDDDDDDDDDDDDDDDDDDDDDDDDDDDDDDDDDDDDDDDDDDDDDDDDDDDDDDDDDDDDDDDDDDDDDDDDDDDDDDDDDDDDDDDDDDDDDDDDDDDDDDDDDDDDDDDDDDDDDDDDDDDDDDDDDDDDDDDDDDDDDDDDDDDDDDDDDDDDDDDDDDDDDDDDDDDDDDDDDDDDDDDDDDDDDDDDDD"
};
